<mxfile host="app.diagrams.net" modified="2024-03-08T19:08:04.933Z" agent="Mozilla/5.0 (Macintosh; Intel Mac OS X 10_15_7) AppleWebKit/605.1.15 (KHTML, like Gecko) Version/17.3.1 Safari/605.1.15" version="24.0.2" etag="nlyb05r1DKFdrDpJ7yUl" type="github">
  <diagram name="Page-1" id="qTLL9n5uvQHbc5Abu-VS">
    <mxGraphModel>
      <root>
        <mxCell id="0" />
        <mxCell id="1" parent="0" />
      </root>
    </mxGraphModel>
  </diagram>
</mxfile>
